<svg width="68" height="68" viewBox="0 0 68 68" fill="none" xmlns="http://www.w3.org/2000/svg">
<path d="M34 34C35.1272 34 36.2082 34.4478 37.0052 35.2448C37.8023 36.0418 38.25 37.1228 38.25 38.25C38.25 39.3772 37.8023 40.4582 37.0052 41.2552C36.2082 42.0522 35.1272 42.5 34 42.5C32.8729 42.5 31.7918 42.0522 30.9948 41.2552C30.1978 40.4582 29.75 39.3772 29.75 38.25C29.75 37.1228 30.1978 36.0418 30.9948 35.2448C31.7918 34.4478 32.8729 34 34 34ZM34 5.66666C37.7208 5.66666 41.4052 6.39952 44.8427 7.8234C48.2803 9.24729 51.4037 11.3343 54.0347 13.9653C56.6657 16.5963 58.7527 19.7197 60.1766 23.1573C61.6005 26.5949 62.3334 30.2792 62.3334 34C62.3334 41.5145 59.3482 48.7212 54.0347 54.0347C48.7212 59.3482 41.5145 62.3333 34 62.3333C30.2792 62.3333 26.5949 61.6005 23.1573 60.1766C19.7198 58.7527 16.5963 56.6657 13.9653 54.0347C8.6518 48.7212 5.66669 41.5145 5.66669 34C5.66669 26.4855 8.6518 19.2788 13.9653 13.9653C19.2789 8.65177 26.4856 5.66666 34 5.66666ZM34 45.3333C36.04 45.3333 37.9667 45.7583 39.78 46.75C41.5934 47.6 42.5 48.7333 42.5 50.065V54.995C46.2967 53.295 48.1667 51.2267 48.1667 48.7333V36.2667C48.1667 34 46.75 32.1583 43.775 30.6C40.8 29.07 37.5417 28.3333 34 28.3333C30.4584 28.3333 27.2 29.07 24.225 30.6C21.25 32.1583 19.8334 34 19.8334 36.2667V48.7333C19.8334 51 21.335 52.955 24.4517 54.4567C27.54 55.9583 30.7134 56.6667 34 56.6667L36.8334 56.44V50.745L34 51C31.1667 51 28.3334 50.4333 25.6417 49.2717C25.9817 48.1667 27.0017 47.2883 28.7017 46.495C30.3734 45.7017 32.13 45.3333 34 45.3333ZM34 11.3333C32.1214 11.3333 30.3197 12.0796 28.9913 13.408C27.663 14.7364 26.9167 16.538 26.9167 18.4167C26.9167 20.2953 27.663 22.0969 28.9913 23.4253C30.3197 24.7537 32.1214 25.5 34 25.5C35.8786 25.5 37.6803 24.7537 39.0087 23.4253C40.3371 22.0969 41.0834 20.2953 41.0834 18.4167C41.0834 16.538 40.3371 14.7364 39.0087 13.408C37.6803 12.0796 35.8786 11.3333 34 11.3333Z" fill="white"/>
</svg>
