<svg width="38" height="38" viewBox="0 0 38 38" fill="none" xmlns="http://www.w3.org/2000/svg">
<path d="M10.6084 18.525C10.3181 18.2347 10.173 17.8653 10.173 17.4167C10.173 16.9681 10.3181 16.5986 10.6084 16.3083L17.8917 9.02502C18.0501 8.86668 18.2216 8.75479 18.4063 8.68935C18.591 8.62285 18.7889 8.5896 19.0001 8.5896C19.2112 8.5896 19.4091 8.62285 19.5938 8.68935C19.7785 8.75479 19.9501 8.86668 20.1084 9.02502L27.3917 16.3083C27.682 16.5986 27.8335 16.9612 27.8461 17.3961C27.8599 17.832 27.7084 18.2083 27.3917 18.525C27.1014 18.8153 26.732 18.9604 26.2834 18.9604C25.8348 18.9604 25.4653 18.8153 25.1751 18.525L19.0001 12.3896L12.8251 18.525C12.5348 18.8153 12.1717 18.9673 11.7357 18.981C11.3008 18.9937 10.9251 18.8417 10.6084 18.525ZM10.6084 28.025C10.3181 27.7347 10.173 27.3653 10.173 26.9167C10.173 26.4681 10.3181 26.0986 10.6084 25.8083L17.8917 18.525C18.0501 18.3667 18.2216 18.2543 18.4063 18.1878C18.591 18.1223 18.7889 18.0896 19.0001 18.0896C19.2112 18.0896 19.4091 18.1223 19.5938 18.1878C19.7785 18.2543 19.9501 18.3667 20.1084 18.525L27.3917 25.8083C27.682 26.0986 27.8335 26.4612 27.8461 26.8961C27.8599 27.332 27.7084 27.7084 27.3917 28.025C27.1014 28.3153 26.732 28.4604 26.2834 28.4604C25.8348 28.4604 25.4653 28.3153 25.1751 28.025L19.0001 21.8896L12.8251 28.025C12.5348 28.3153 12.1717 28.4673 11.7357 28.481C11.3008 28.4937 10.9251 28.3417 10.6084 28.025Z" fill="white"/>
</svg>
